# xmcd CD database file
#
# Track frame offsets:
#	187
#	47600
#	112775
#	154762
#	200525
#	255450
#
# Disc length: 4203 seconds
#
# Revision: 0
# Processed by: cddbd v1.5.2PL0 Copyright (c) Steve Scherf et al.
# Submitted via: CDex 1.70beta2
#
DISCID=42106906
DTITLE=峰厚介 - Major to Minor
DYEAR=1993
DGENRE=Jazz
TTITLE0=Major to Minor
TTITLE1=Morning After
TTITLE2=Last Shot
TTITLE3=Sasuke
TTITLE4=Changa
TTITLE5=I Remember Goko
EXTD=YEAR: 1993
EXTT0=
EXTT1=
EXTT2=
EXTT3=
EXTT4=
EXTT5=
PLAYORDER=
